<?xml version="1.0" encoding="utf-8"?>
<!-- Generator: Adobe Illustrator 23.0.1, SVG Export Plug-In . SVG Version: 6.00 Build 0)  -->
<svg version="1.1" id="Calque_1" xmlns="http://www.w3.org/2000/svg" xmlns:xlink="http://www.w3.org/1999/xlink" x="0px" y="0px"
	 viewBox="0 0 800 600" enable-background="new 0 0 800 600" xml:space="preserve">
<g id="background">
</g>
<g id="zeppelin">
	<path fill="#D74738" d="M753,280.4h-55.5V252c0-17.7,14.3-32,32-32l37,0.6c1.7,1.9,4.1,1.7,5.4,3.6l-1.4,35.9
		c-3,5.9-5.1,11.7-8.5,15.2c-1.2,1.2-2.2,3-4.2,4C756.4,280,754.8,280.4,753,280.4z"/>
	<g>
		<g>
			<path id="SVGID_1_" fill="#612E2D" d="M757.8,279.3v-59h7.5c4.2,0,7.5,3.8,7.5,8.5c0,0.2,0,8.9,0,9c0,0.3-0.1,9.6-0.1,9.6
				c0,1.9-0.3,4.2-0.6,6c-0.1,0.3-0.3,1.6-0.6,3.1c-0.2,1-0.4,1.3-0.5,2c-0.1,0.9-0.8,1.9-1.1,3.4c-0.3,1.1-0.7,2.4-1.3,3.8
				c-1,2-2,3.1-2.5,4.2c-0.8,1.2-2.2,3.1-2.2,3.1s-1.5,1.7-2.5,3C759.2,278.7,758.1,279.2,757.8,279.3z"/>
		</g>
		<g>
			<g>
				<g>
					<g>
						<defs>
							<path id="SVGID_2_" d="M757.8,279.3v-59h7.5c4.2,0,7.5,3.8,7.5,8.5c0,0.2,0,8.9,0,9c0,0.3-0.1,9.6-0.1,9.6
								c0,1.9-0.3,4.2-0.6,6c-0.1,0.3-0.3,1.6-0.6,3.1c-0.2,1-0.4,1.3-0.5,2c-0.1,0.9-0.8,1.9-1.1,3.4c-0.3,1.1-0.7,2.4-1.3,3.8
								c-1,2-2,3.1-2.5,4.2c-0.8,1.2-2.2,3.1-2.2,3.1s-1.5,1.7-2.5,3C759.2,278.7,758.1,279.2,757.8,279.3z"/>
						</defs>
						<clipPath id="SVGID_4_">
							<use xlink:href="#SVGID_2_"  overflow="visible"/>
						</clipPath>
						<path clip-path="url(#SVGID_4_)" fill="#612E2D" d="M752.7,281.7h-55.5v-30c0-17.7,14.3-32,32-32h39.5c2.2,0,4,1.8,4,4v38
							C772.7,272.7,763.7,281.7,752.7,281.7z"/>
					</g>
				</g>
			</g>
		</g>
	</g>
	<circle fill="#612E2D" cx="757.8" cy="245.3" r="7.5"/>
	<path fill="#664341" d="M363.2,431.2h-74.6c-4.4,0-8-3.6-8-8v-14.6h90.6v14.6C371.2,427.6,367.6,431.2,363.2,431.2z"/>
	<rect x="297.7" y="419.6" fill="#F7C263" width="3.8" height="3.8"/>
	<rect x="335.3" y="419.6" fill="#F7C263" width="3.8" height="3.8"/>
	<rect x="327.7" y="419.6" fill="#F7C263" width="3.8" height="3.8"/>
	<rect x="312.6" y="419.6" fill="#F7C263" width="3.8" height="3.8"/>
	<rect x="305.3" y="419.6" fill="#F7C263" width="3.8" height="3.8"/>
	<path fill="#D74738" d="M752.4,330.9H697v28.4c0,17.7,14.3,32,32,32l37-0.6c1.7-1.9,4.1-1.7,5.4-3.6l-1.4-35.9
		c-3-5.9-5.1-11.7-8.5-15.2c-1.2-1.2-2.2-3-4.2-4C755.9,331.3,754.3,330.9,752.4,330.9z"/>
	<g>
		<g>
			<path id="SVGID_3_" fill="#612E2D" d="M757.3,332v59h7.5c4.2,0,7.5-3.8,7.5-8.5c0-0.2,0-8.9,0-9c0-0.3-0.1-9.6-0.1-9.6
				c0-1.9-0.3-4.2-0.6-6c-0.1-0.3-0.3-1.6-0.6-3.1c-0.2-1-0.4-1.3-0.5-2c-0.1-0.9-0.8-1.9-1.1-3.4c-0.3-1.1-0.7-2.4-1.3-3.8
				c-1-2-2-3.1-2.5-4.2c-0.8-1.2-2.2-3.1-2.2-3.1s-1.5-1.7-2.5-3C758.7,332.6,757.5,332,757.3,332z"/>
		</g>
		<g>
			<g>
				<g>
					<g>
						<defs>
							<path id="SVGID_5_" d="M757.3,332v59h7.5c4.2,0,7.5-3.8,7.5-8.5c0-0.2,0-8.9,0-9c0-0.3-0.1-9.6-0.1-9.6c0-1.9-0.3-4.2-0.6-6
								c-0.1-0.3-0.3-1.6-0.6-3.1c-0.2-1-0.4-1.3-0.5-2c-0.1-0.9-0.8-1.9-1.1-3.4c-0.3-1.1-0.7-2.4-1.3-3.8c-1-2-2-3.1-2.5-4.2
								c-0.8-1.2-2.2-3.1-2.2-3.1s-1.5-1.7-2.5-3C758.7,332.6,757.5,332,757.3,332z"/>
						</defs>
						<clipPath id="SVGID_6_">
							<use xlink:href="#SVGID_5_"  overflow="visible"/>
						</clipPath>
						<path clip-path="url(#SVGID_6_)" fill="#612E2D" d="M752.1,329.6h-55.5v30c0,17.7,14.3,32,32,32h39.5c2.2,0,4-1.8,4-4v-38
							C772.1,338.5,763.2,329.6,752.1,329.6z"/>
					</g>
				</g>
			</g>
		</g>
	</g>
	<rect x="320.1" y="419.6" fill="#F7C263" width="3.8" height="3.8"/>
	<rect x="350.4" y="419.6" fill="#F7C263" width="3.8" height="3.8"/>
	<rect x="342.8" y="419.6" fill="#F7C263" width="3.8" height="3.8"/>
	<path fill="#F29079" d="M788,305.6c0,28.1-229.3,105.7-437.7,105.7s-317-47.3-317-105.7S141.8,200,350.2,200S788,282.2,788,305.6z"
		/>
	<path fill="#C25241" d="M788,305.6c0,28.1-229.3,105.7-437.7,105.7s-317-47.3-317-105.7c0,0,104.9,0,313.4,0S788,305.6,788,305.6z"
		/>
	<path fill="#BB3A2E" d="M788,305.6c0,28.1-229.3,105.7-437.7,105.7s-317-47.3-317-105.7c-2.5,16.2,20.5,72.7,231.9,82
		C477.3,397,788.4,330.4,788,305.6z"/>
	<path fill="#D86552" d="M788,305.6C788,277.5,558.6,200,350.2,200s-317,47.3-317,105.7c0,0,104.9,0,313.4,0S788,305.6,788,305.6z"
		/>
	<path fill="#EB7C65" d="M788,305.6C788,277.5,558.6,200,350.2,200s-317,47.3-317,105.7c-2.5-16.2,20.5-72.7,231.9-82
		C477.3,214.2,788.4,280.9,788,305.6z"/>
	<path fill="#664341" d="M34.7,294c-0.2,0.4,1.2-4,1.3-4.3c0.2-0.9,0.7-1.9,0.9-2.4c0.2-0.4,0.3-1,0.8-1.9l0,0l0.7-1.5l1.5-2.8
		c0-0.2,0.1-0.1,0.8-1.4c0.2-0.4,0.4-0.6,0.5-0.9c0.3-0.5,0.9-1.4,1.9-2.9c1.6-2,3.3-4.1,5-6.1l1.4,73c-1.4-0.9-3.8-3.3-6.4-7.5
		c-0.9-1.4-2.3-3.6-3.6-6.2c-2.4-4.7-4.4-8.7-5.3-14.2c-0.1-0.7-1-2.3-1-5.6c0-1.3,0-2.4-0.1-3.8c0-0.4,0-0.9,0-1.7
		c0-0.6,0-1.2,0.1-2.2c0.1-0.9,0.3-2.3,0.7-3.9"/>
	<path fill="#664341" d="M34.7,296.2"/>
	<path fill="#664341" d="M12.9,304.9l20.7-2.2c0.6-0.1,1.1,0.4,1.1,1v5.4c0,0.6-0.5,1-1.1,1L12.9,308c-0.5,0-0.9-0.5-0.9-1v-1.1
		C12,305.4,12.4,304.9,12.9,304.9z"/>
	<path fill="#664341" d="M757.8,305.6c0,4.2-24.4,7.5-45.3,7.5s-30.2-3.4-30.2-7.5s9.3-7.5,30.2-7.5S757.8,301.5,757.8,305.6z"/>
	<ellipse fill="#664341" cx="663.4" cy="305.6" rx="3.8" ry="1.9"/>
	
		<ellipse transform="matrix(0.2111 -0.9775 0.9775 0.2111 266.422 856.1132)" fill="#664341" cx="663.6" cy="263" rx="1.9" ry="3.8"/>
	
		<ellipse transform="matrix(0.979 -0.204 0.204 0.979 -57.1234 142.6599)" fill="#664341" cx="663.4" cy="348.4" rx="3.8" ry="1.9"/>
	
		<ellipse transform="matrix(0.9912 -0.1327 0.1327 0.9912 -45.2718 70.3014)" fill="#664341" cx="504.8" cy="374.8" rx="3.8" ry="1.9"/>
	
		<ellipse transform="matrix(0.1364 -0.9907 0.9907 0.1364 201.8817 704.4861)" fill="#664341" cx="505" cy="236.5" rx="1.9" ry="3.8"/>
	<ellipse fill="#664341" cx="346.4" cy="223.5" rx="3.8" ry="1.9"/>
	<ellipse fill="#664341" cx="346.4" cy="387.9" rx="3.8" ry="1.9"/>
	
		<ellipse transform="matrix(0.9953 -9.689776e-02 9.689776e-02 0.9953 -21.4126 19.2803)" fill="#664341" cx="187.8" cy="230.1" rx="3.8" ry="1.9"/>
	
		<ellipse transform="matrix(0.1254 -0.9921 0.9921 0.1254 -214.4509 520.1234)" fill="#664341" cx="187.8" cy="381.7" rx="1.9" ry="3.8"/>
	<path fill="#664341" d="M433.2,383.6c0,4.2-8.8,7.5-15.1,7.5s-7.5-3.4-7.5-7.5s1.3-7.5,7.5-7.5
		C424.3,376.1,433.2,379.5,433.2,383.6z"/>
	<path fill="#D74738" d="M757.8,279.2"/>
	<path fill="#D74738" d="M757.6,279.2"/>
	<circle fill="#612E2D" cx="757.3" cy="366" r="7.5"/>
</g>
<g id="gradient">
</g>
<g id="texture">
</g>
<g enable-background="new    ">
	<path fill="#FFFFFF" d="M149,269.4c0,2.2-0.7,4.5-2,6.8l-14.5,24.6h4.8c3.3,0,6.1,1.1,8.3,3.3c2.2,2.2,3.3,5,3.3,8.3
		c0,1.5-0.3,3-0.8,4.4c0.5,1.4,0.8,2.9,0.8,4.4c0,3.3-1.1,6.1-3.3,8.3c-2.2,2.2-5,3.3-8.3,3.3H107c-3.3,0-6.1-1-8.4-2.9
		c-2.3-1.9-3.5-4.5-3.5-7.8c0-1.6,0.3-3.1,0.9-4.6c-0.6-1.3-0.9-2.7-0.9-4.2c0-2.4,0.6-4.7,1.9-6.8l14.4-24.5
		c-3.2-0.1-5.9-1.3-8-3.5c-2.1-2.2-3.2-4.9-3.2-8.2c0-1.5,0.3-3,0.8-4.4c-0.5-1.4-0.8-2.9-0.8-4.4c0-3.3,1.1-6.1,3.3-8.3
		c2.2-2.2,5-3.3,8.3-3.3h25.1c3.3,0,6.1,0.8,8.2,2.5c2.5,1.9,3.8,4.7,3.8,8.2c0,1.4-0.3,2.8-0.8,4.3
		C148.7,266.2,149,267.7,149,269.4z M143.3,260.6c0-3.3-2.1-5-6.3-5h-25.1c-1.8,0-3.2,0.5-4.3,1.6c-1.1,1.1-1.6,2.5-1.6,4.3
		c0,1.8,0.5,3.2,1.6,4.3c1.1,1.1,2.5,1.7,4.3,1.7h14.7l-24.6,41.8c-0.8,1.3-1.1,2.6-1.1,3.9c0,1.6,0.6,2.9,1.8,3.7
		c1.2,0.8,2.7,1.3,4.4,1.3h30.3c1.8,0,3.2-0.5,4.3-1.6c1.1-1.1,1.6-2.5,1.6-4.3s-0.5-3.2-1.6-4.3c-1.1-1.1-2.5-1.7-4.3-1.7h-19.9
		l24.6-41.9C142.8,263,143.3,261.8,143.3,260.6z"/>
	<path fill="#FFFFFF" d="M197.3,293.2c0,3.7-1.5,6.7-4.5,9.1c-0.5,0.5-1.3,1.3-2.5,2.5c1.8,2.1,2.6,4.6,2.6,7.5c0,1.5-0.3,3-0.8,4.4
		c0.5,1.4,0.8,2.9,0.8,4.4c0,3.3-1.1,6.1-3.3,8.3c-2.2,2.2-5,3.3-8.3,3.3h-7.8c-7.9,0-14.5-2.7-20-8.1c-5.4-5.4-8.1-12.1-8.1-20
		c0-1.5,0.1-2.9,0.4-4.4c-0.2-1.5-0.4-2.9-0.4-4.4c0-8,2.7-14.6,8.1-20c5.4-5.4,12-8.1,20-8.1c5.2,0,10.3,1.4,15.2,4.3
		c5.7,3.3,8.5,7.4,8.5,12.3c0,1.6-0.3,3-0.9,4.4C197,290.2,197.3,291.7,197.3,293.2z M191.6,284.4c0-1.5-0.6-2.8-1.8-4
		c-4.4-4.6-9.9-6.8-16.2-6.8c-6.4,0-11.7,2.1-16,6.4c-4.3,4.3-6.4,9.6-6.4,16c0,6.4,2.1,11.7,6.4,16c4.3,4.3,9.6,6.4,16,6.4h7.8
		c1.8,0,3.2-0.6,4.3-1.7c1.1-1.1,1.6-2.5,1.6-4.3c0-1.8-0.5-3.2-1.6-4.3c-1.1-1.1-2.5-1.6-4.3-1.6h-7.8c-2.9,0-5.4-1-7.5-3.1
		c-2-2.1-3.1-4.6-3.1-7.5c0-2.9,1-5.4,3.1-7.5c2-2,4.5-3.1,7.5-3.1c0.8,0,1.5,0.1,2.3,0.2l-6.3,6.2c-1.3,1.3-1.9,2.7-1.9,4.1
		c0,1.6,0.6,3.1,1.8,4.3c1.2,1.2,2.6,1.8,4.3,1.8c1.5,0,2.8-0.6,4.1-1.8l11.2-11C190.7,288,191.6,286.4,191.6,284.4z"/>
	<path fill="#FFFFFF" d="M250.4,304.7c0,7.9-2.7,14.6-8.2,20c-5.4,5.4-12.1,8.2-20,8.2c-1.7,0-3.3-0.3-4.8-1v7.1
		c0,3.3-1.1,6.1-3.3,8.3c-2.2,2.2-5,3.3-8.3,3.3c-3.3,0-6.1-1.1-8.3-3.3c-2.2-2.2-3.3-5-3.3-8.3v-43.1c0-8,2.7-14.6,8.1-20
		c5.4-5.4,12-8.1,20-8.1c8,0,14.6,2.7,20,8.1c5.4,5.4,8.1,12,8.1,20c0,1.5-0.1,3-0.4,4.5C250.3,301.8,250.4,303.2,250.4,304.7z
		 M244.7,295.9c0-6.4-2.1-11.7-6.4-16c-4.3-4.3-9.6-6.4-16-6.4c-6.4,0-11.7,2.1-16,6.4c-4.3,4.3-6.4,9.6-6.4,16v34.3
		c0,1.8,0.5,3.2,1.6,4.3c1.1,1.1,2.5,1.7,4.3,1.7c1.8,0,3.2-0.6,4.3-1.7c1.1-1.1,1.7-2.5,1.7-4.3v-34.3c0-2.9,1-5.4,3.1-7.5
		c2-2,4.5-3.1,7.5-3.1c2.9,0,5.4,1,7.5,3.1c2.1,2,3.1,4.5,3.1,7.5c0,2.9-1,5.4-3.1,7.5c-2.1,2.1-4.6,3.1-7.5,3.1
		c-1.8,0-3.2,0.5-4.3,1.6c-1.1,1.1-1.6,2.5-1.6,4.3c0,1.8,0.5,3.2,1.6,4.3c1.1,1.1,2.5,1.7,4.3,1.7c6.4,0,11.7-2.1,16-6.4
		C242.6,307.6,244.7,302.3,244.7,295.9z M224.5,300.3c-0.7-0.3-1.4-0.4-2.2-0.4c-1.4,0-2.6,0.5-3.5,1.5
		C220.1,301.3,222,301,224.5,300.3z"/>
	<path fill="#FFFFFF" d="M303.3,304.7c0,7.9-2.7,14.6-8.2,20c-5.4,5.4-12.1,8.2-20,8.2c-1.7,0-3.3-0.3-4.8-1v7.1
		c0,3.3-1.1,6.1-3.3,8.3c-2.2,2.2-5,3.3-8.3,3.3c-3.3,0-6.1-1.1-8.3-3.3c-2.2-2.2-3.3-5-3.3-8.3v-43.1c0-8,2.7-14.6,8.1-20
		c5.4-5.4,12-8.1,20-8.1c8,0,14.6,2.7,20,8.1c5.4,5.4,8.1,12,8.1,20c0,1.5-0.1,3-0.4,4.5C303.2,301.8,303.3,303.2,303.3,304.7z
		 M297.6,295.9c0-6.4-2.1-11.7-6.4-16c-4.3-4.3-9.6-6.4-16-6.4c-6.4,0-11.7,2.1-16,6.4c-4.3,4.3-6.4,9.6-6.4,16v34.3
		c0,1.8,0.5,3.2,1.6,4.3c1.1,1.1,2.5,1.7,4.3,1.7c1.8,0,3.2-0.6,4.3-1.7c1.1-1.1,1.7-2.5,1.7-4.3v-34.3c0-2.9,1-5.4,3.1-7.5
		c2-2,4.5-3.1,7.5-3.1c2.9,0,5.4,1,7.5,3.1c2.1,2,3.1,4.5,3.1,7.5c0,2.9-1,5.4-3.1,7.5c-2.1,2.1-4.6,3.1-7.5,3.1
		c-1.8,0-3.2,0.5-4.3,1.6c-1.1,1.1-1.6,2.5-1.6,4.3c0,1.8,0.5,3.2,1.6,4.3c1.1,1.1,2.5,1.7,4.3,1.7c6.4,0,11.7-2.1,16-6.4
		C295.5,307.6,297.6,302.3,297.6,295.9z M277.4,300.3c-0.7-0.3-1.4-0.4-2.2-0.4c-1.4,0-2.6,0.5-3.5,1.5
		C273,301.3,274.9,301,277.4,300.3z"/>
	<path fill="#FFFFFF" d="M351.7,293.2c0,3.7-1.5,6.7-4.5,9.1c-0.5,0.5-1.3,1.3-2.5,2.5c1.8,2.1,2.6,4.6,2.6,7.5c0,1.5-0.3,3-0.8,4.4
		c0.5,1.4,0.8,2.9,0.8,4.4c0,3.3-1.1,6.1-3.3,8.3c-2.2,2.2-5,3.3-8.3,3.3h-7.8c-7.9,0-14.5-2.7-20-8.1c-5.4-5.4-8.1-12.1-8.1-20
		c0-1.5,0.1-2.9,0.4-4.4c-0.2-1.5-0.4-2.9-0.4-4.4c0-8,2.7-14.6,8.1-20c5.4-5.4,12-8.1,20-8.1c5.2,0,10.3,1.4,15.2,4.3
		c5.7,3.3,8.5,7.4,8.5,12.3c0,1.6-0.3,3-0.9,4.4C351.4,290.2,351.7,291.7,351.7,293.2z M346,284.4c0-1.5-0.6-2.8-1.8-4
		c-4.4-4.6-9.9-6.8-16.2-6.8c-6.4,0-11.7,2.1-16,6.4c-4.3,4.3-6.4,9.6-6.4,16c0,6.4,2.1,11.7,6.4,16c4.3,4.3,9.6,6.4,16,6.4h7.8
		c1.8,0,3.2-0.6,4.3-1.7c1.1-1.1,1.6-2.5,1.6-4.3c0-1.8-0.5-3.2-1.6-4.3c-1.1-1.1-2.5-1.6-4.3-1.6h-7.8c-2.9,0-5.4-1-7.5-3.1
		c-2-2.1-3.1-4.6-3.1-7.5c0-2.9,1-5.4,3.1-7.5c2-2,4.5-3.1,7.5-3.1c0.8,0,1.5,0.1,2.3,0.2l-6.3,6.2c-1.3,1.3-1.9,2.7-1.9,4.1
		c0,1.6,0.6,3.1,1.8,4.3c1.2,1.2,2.6,1.8,4.3,1.8c1.5,0,2.8-0.6,4.1-1.8l11.2-11C345.2,288,346,286.4,346,284.4z"/>
	<path fill="#FFFFFF" d="M371.9,321.1c0,3.3-1.1,6.1-3.4,8.3c-2.3,2.2-5,3.3-8.3,3.3c-3.3,0-6.1-1.1-8.3-3.3c-2.2-2.2-3.3-5-3.3-8.3
		v-59.5c0-3.3,1.1-6.1,3.3-8.3s5-3.3,8.3-3.3c3.6,0,6.4,1,8.5,3.1c2.1,2.1,3.2,4.9,3.2,8.5V321.1z M366.2,312.3v-50.7
		c0-3.9-2-5.9-6-5.9c-1.8,0-3.2,0.5-4.3,1.6c-1.1,1.1-1.6,2.5-1.6,4.3v50.7c0,1.8,0.5,3.2,1.6,4.3c1.1,1.1,2.5,1.6,4.3,1.6
		c1.8,0,3.2-0.5,4.3-1.6C365.7,315.5,366.2,314.1,366.2,312.3z"/>
	<path fill="#FFFFFF" d="M393.5,270.8c0,2.2-0.5,4.3-1.5,6.1c0.1,0.8,0.2,1.6,0.2,2.5v41.7c0,3.3-1.1,6.1-3.4,8.3
		c-2.3,2.2-5,3.3-8.3,3.3c-3.3,0-6.1-1.1-8.3-3.3c-2.2-2.2-3.3-5-3.3-8.3v-41.7c0-0.8,0.1-1.6,0.2-2.4c-1.1-1.9-1.6-4-1.6-6.2
		c0-1.5,0.3-3,0.8-4.4c-0.5-1.4-0.8-2.9-0.8-4.4c0-3.6,1.3-6.6,3.8-9.2c2.5-2.5,5.6-3.8,9.2-3.8c3.6,0,6.6,1.3,9.2,3.8
		c2.5,2.5,3.8,5.6,3.8,9.2c0,1.5-0.3,3-0.8,4.4C393.2,267.9,393.5,269.3,393.5,270.8z M387.8,262.1c0-2-0.7-3.7-2.1-5.1
		c-1.4-1.4-3.1-2.1-5.1-2.1c-2,0-3.7,0.7-5.1,2.1c-1.4,1.4-2.1,3.1-2.1,5.1c0,2,0.7,3.7,2.1,5.1c1.4,1.4,3.1,2.1,5.1,2.1
		c2,0,3.7-0.7,5.1-2.1C387.1,265.8,387.8,264.1,387.8,262.1z M386.5,312.3v-32.9c0-3.9-2-5.9-6-5.9c-1.8,0-3.2,0.5-4.3,1.6
		c-1.1,1.1-1.6,2.5-1.6,4.3v32.9c0,1.8,0.5,3.2,1.6,4.3c1.1,1.1,2.5,1.6,4.3,1.6c1.8,0,3.2-0.5,4.3-1.6
		C385.9,315.5,386.5,314.1,386.5,312.3z"/>
	<path fill="#FFFFFF" d="M452,340.4c0,3.3-1.1,6.1-3.4,8.3c-2.3,2.2-5,3.3-8.3,3.3c-7.1,0-13-2.3-17.8-7c-4.8-4.7-7.2-10.6-7.2-17.6
		v-4.1l-0.1-22c0-0.9-0.4-1.3-1.3-1.3c-0.9,0-1.4,0.4-1.4,1.3v19.9c0,3.3-1.1,6.1-3.3,8.3c-2.2,2.2-5,3.3-8.3,3.3
		c-3.3,0-6.1-1.1-8.3-3.3c-2.2-2.2-3.3-5-3.3-8.3v-28.7c0-6.9,2.4-12.7,7.1-17.5c4.8-4.7,10.6-7.1,17.5-7.1c6.9,0,12.7,2.4,17.5,7.1
		c4.8,4.7,7.1,10.6,7.1,17.5v26.1c0,0.9,0.5,1.4,1.4,1.4c3.5,0,6.3,1.1,8.6,3.3c2.3,2.2,3.4,5,3.4,8.4c0,1.6-0.3,3-0.8,4.4
		C451.7,337.4,452,338.8,452,340.4z M446.3,331.6c0-1.8-0.6-3.2-1.7-4.3c-1.1-1.1-2.5-1.7-4.3-1.7H440c-2,0-3.7-0.7-5-2.1
		c-1.4-1.4-2.1-3.1-2.1-5v-26.1c0-5.4-1.8-9.9-5.4-13.5c-3.6-3.6-8.1-5.4-13.5-5.4c-5.4,0-9.9,1.8-13.5,5.4
		c-3.6,3.6-5.4,8.1-5.4,13.5v19.9c0,1.8,0.5,3.2,1.6,4.3c1.1,1.1,2.5,1.6,4.3,1.6s3.2-0.5,4.3-1.6c1.1-1.1,1.7-2.5,1.7-4.3v-19.9
		c0-2,0.7-3.7,2.1-5c1.4-1.3,3.1-2,5-2c1.9,0,3.6,0.7,5,2.1c1.4,1.4,2.1,3,2.1,5l0.1,26.1c0,5.4,1.8,10,5.4,13.6
		c3.6,3.6,8.1,5.4,13.6,5.4h0.4c1.8,0,3.2-0.5,4.3-1.6C445.7,334.8,446.3,333.4,446.3,331.6z"/>
	<path fill="#FFFFFF" d="M513.1,270.2c0,3.3-1.1,6.1-3.3,8.3c-2.2,2.2-5,3.3-8.3,3.3H499v39.2c0,3.3-1.1,6.1-3.3,8.3
		c-2.2,2.2-5,3.3-8.3,3.3s-6.1-1.1-8.3-3.3c-2.2-2.2-3.3-5-3.3-8.3v-39.2h-2c-3.3,0-6.1-1.1-8.3-3.3c-2.2-2.2-3.3-5-3.3-8.3
		c0-1.5,0.3-3,0.8-4.4c-0.5-1.4-0.8-2.9-0.8-4.4c0-3.3,1.1-6.1,3.3-8.3c2.2-2.2,5-3.3,8.3-3.3h27.7c3.3,0,6.1,1.1,8.3,3.3
		c2.2,2.2,3.3,5,3.3,8.3c0,1.6-0.3,3-0.8,4.4C512.9,267.3,513.1,268.7,513.1,270.2z M507.4,261.5c0-1.8-0.6-3.2-1.7-4.3
		c-1.1-1.1-2.5-1.6-4.3-1.6h-27.7c-1.8,0-3.2,0.5-4.3,1.6c-1.1,1.1-1.7,2.5-1.7,4.3c0,1.8,0.6,3.2,1.7,4.3c1.1,1.1,2.5,1.7,4.3,1.7
		h7.7v44.9c0,1.8,0.6,3.2,1.7,4.3c1.1,1.1,2.5,1.6,4.3,1.6s3.2-0.5,4.3-1.6c1.1-1.1,1.6-2.5,1.6-4.3v-44.9h8.2
		c1.8,0,3.2-0.6,4.3-1.7C506.9,264.7,507.4,263.2,507.4,261.5z"/>
	<path fill="#FFFFFF" d="M565.9,304.7c0,7.9-2.7,14.6-8.2,20c-5.4,5.4-12.1,8.2-20,8.2c-8,0-14.6-2.7-20-8.1
		c-5.4-5.4-8.1-12.1-8.1-20c0-1.5,0.1-2.9,0.4-4.4c-0.2-1.5-0.4-2.9-0.4-4.4c0-8,2.7-14.6,8.1-20c5.4-5.4,12-8.1,20-8.1
		c8,0,14.6,2.7,20,8.1c5.4,5.4,8.1,12,8.1,20c0,1.5-0.1,3-0.4,4.5C565.8,301.8,565.9,303.2,565.9,304.7z M560.2,295.9
		c0-6.4-2.1-11.7-6.4-16c-4.3-4.3-9.6-6.4-16-6.4c-6.4,0-11.7,2.1-16,6.4c-4.3,4.3-6.4,9.6-6.4,16c0,6.4,2.1,11.7,6.4,16
		c4.3,4.3,9.6,6.4,16,6.4c6.4,0,11.7-2.1,16-6.4S560.2,302.3,560.2,295.9z M548.4,295.9c0,2.9-1,5.4-3.1,7.5
		c-2.1,2.1-4.6,3.1-7.5,3.1s-5.4-1-7.5-3.1c-2-2.1-3.1-4.6-3.1-7.5c0-2.9,1-5.4,3.1-7.5c2-2,4.5-3.1,7.5-3.1s5.4,1,7.5,3.1
		C547.3,290.5,548.4,293,548.4,295.9z"/>
	<path fill="#FFFFFF" d="M611.8,308c0,6.9-2.4,12.7-7.1,17.5c-4.7,4.8-10.6,7.1-17.5,7.1c-7,0-12.8-2.4-17.5-7.1
		c-4.7-4.7-7.1-10.6-7.1-17.5v-28.4c0-3.3,1.1-6.1,3.3-8.3c2.2-2.2,5-3.3,8.3-3.3s6.1,1.1,8.3,3.3c2.2,2.2,3.3,5,3.3,8.3v19.6
		c0,0.9,0.5,1.4,1.4,1.4c0.9,0,1.3-0.5,1.3-1.4v-19.8c0-3.3,1.1-6.1,3.3-8.3c2.2-2.2,5-3.3,8.3-3.3s6.1,1.1,8.3,3.3
		c2.2,2.2,3.3,5,3.3,8.3V308z M606.1,299.3v-19.8c0-1.8-0.5-3.2-1.6-4.3c-1.1-1.1-2.5-1.6-4.3-1.6c-1.8,0-3.2,0.5-4.3,1.6
		c-1.1,1.1-1.7,2.5-1.7,4.3v19.8c0,2-0.7,3.7-2,5c-1.3,1.4-3,2.1-5,2.1c-2,0-3.7-0.7-5-2.1c-1.4-1.4-2.1-3.1-2.1-5v-19.6
		c0-1.8-0.6-3.2-1.7-4.3c-1.1-1.1-2.5-1.7-4.3-1.7s-3.2,0.6-4.3,1.7c-1.1,1.1-1.6,2.5-1.6,4.3v19.6c0,5.4,1.8,10,5.4,13.6
		s8.1,5.4,13.6,5.4c5.4,0,9.9-1.8,13.5-5.4C604.3,309.1,606.1,304.6,606.1,299.3z"/>
	<path fill="#FFFFFF" d="M645.2,288.2c0,3.5-1,6.2-3.1,8.2c-2.1,2-4.8,3.2-8.1,3.5c-1.2,0.1-1.8,0.5-1.8,1.3v19.9
		c0,3.3-1.1,6.1-3.3,8.3c-2.2,2.2-5,3.3-8.3,3.3s-6.1-1.1-8.3-3.3c-2.2-2.2-3.3-5-3.3-8.3v-28.7c0-6.9,2.4-12.7,7.1-17.5
		s10.6-7.1,17.5-7.1c3.3,0,6,1.1,8.2,3.3c2.2,2.2,3.3,5,3.3,8.2c0,1.6-0.3,3.1-0.8,4.5C644.9,285.3,645.2,286.7,645.2,288.2z
		 M639.5,279.4c0-1.7-0.6-3.1-1.7-4.2c-1.1-1.1-2.5-1.7-4.2-1.7c-5.4,0-9.9,1.8-13.5,5.4c-3.6,3.6-5.4,8.1-5.4,13.5v19.9
		c0,1.8,0.5,3.2,1.6,4.3c1.1,1.1,2.5,1.6,4.3,1.6s3.2-0.5,4.3-1.6c1.1-1.1,1.7-2.5,1.7-4.3v-19.9c0-2,0.7-3.6,2-4.9
		c1.3-1.3,3-2,5-2.1C637.5,285.1,639.5,283.1,639.5,279.4z"/>
</g>
</svg>
