<?xml version="1.0" encoding="utf-8"?>
<!-- Generator: Adobe Illustrator 23.0.1, SVG Export Plug-In . SVG Version: 6.00 Build 0)  -->
<svg version="1.1" xmlns="http://www.w3.org/2000/svg" xmlns:xlink="http://www.w3.org/1999/xlink" x="0px" y="0px"
	 viewBox="0 0 800 600" style="enable-background:new 0 0 800 600;" xml:space="preserve">
<style type="text/css">
	.st0{fill:#D74738;}
	.st1{clip-path:url(#SVGID_2_);fill:#612E2D;}
	.st2{fill:#612E2D;}
	.st3{fill:#664341;}
	.st4{fill:#F7C263;}
	.st5{clip-path:url(#SVGID_4_);fill:#612E2D;}
	.st6{fill:#F29079;}
	.st7{fill:#C25241;}
	.st8{fill:#BB3A2E;}
	.st9{fill:#D86552;}
	.st10{fill:#EB7C65;}
</style>
<g id="background">
</g>
<g id="zeppelin">
	<path class="st0" d="M752.95,280.39h-55.47v-28.38c0-17.67,14.33-32,32-32l36.98,0.61c1.68,1.89,4.14,1.68,5.38,3.62l-1.38,35.88
		c-2.98,5.94-5.14,11.7-8.5,15.18c-1.18,1.22-2.18,2.97-4.22,3.98C756.41,279.95,754.82,280.39,752.95,280.39z"/>
	<g>
		<defs>
			<path id="SVGID_1_" d="M757.77,279.27v-59.02h7.55c4.17,0,7.55,3.79,7.55,8.46c-0.01,0.16,0.01,8.89,0,9.04
				c-0.03,0.33-0.11,9.59-0.11,9.64c0,1.85-0.28,4.2-0.64,6.01c-0.06,0.31-0.35,1.62-0.63,3.12c-0.19,1.02-0.44,1.27-0.51,1.97
				c-0.09,0.85-0.75,1.92-1.12,3.41c-0.29,1.11-0.68,2.43-1.35,3.81c-0.96,2-1.97,3.1-2.49,4.2c-0.75,1.19-2.17,3.13-2.17,3.13
				s-1.46,1.72-2.47,2.95C759.17,278.67,758.06,279.24,757.77,279.27z"/>
		</defs>
		<use xlink:href="#SVGID_1_"  style="overflow:visible;fill:#612E2D;"/>
		<clipPath id="SVGID_2_">
			<use xlink:href="#SVGID_1_"  style="overflow:visible;"/>
		</clipPath>
		<path class="st1" d="M752.66,281.68h-55.47V251.7c0-17.67,14.33-32,32-32h39.47c2.21,0,4,1.79,4,4v37.98
			C772.66,272.73,763.7,281.68,752.66,281.68z"/>
	</g>
	<circle class="st2" cx="757.77" cy="245.26" r="7.55"/>
	<path class="st3" d="M363.22,431.22h-74.57c-4.42,0-8-3.58-8-8v-14.64h90.57v14.64C371.22,427.64,367.64,431.22,363.22,431.22z"/>
	<rect x="297.72" y="419.56" class="st4" width="3.77" height="3.77"/>
	<rect x="335.28" y="419.56" class="st4" width="3.77" height="3.77"/>
	<rect x="327.74" y="419.56" class="st4" width="3.77" height="3.77"/>
	<rect x="312.65" y="419.56" class="st4" width="3.77" height="3.77"/>
	<rect x="305.27" y="419.56" class="st4" width="3.77" height="3.77"/>
	<path class="st0" d="M752.44,330.89h-55.47v28.38c0,17.67,14.33,32,32,32l36.98-0.61c1.68-1.89,4.14-1.68,5.38-3.63l-1.38-35.88
		c-2.98-5.94-5.14-11.7-8.5-15.18c-1.18-1.22-2.18-2.97-4.22-3.98C755.89,331.33,754.31,330.89,752.44,330.89z"/>
	<g>
		<defs>
			<path id="SVGID_3_" d="M757.26,332.01v59.02h7.55c4.17,0,7.55-3.79,7.55-8.46c-0.01-0.16,0.01-8.89,0-9.04
				c-0.03-0.33-0.11-9.59-0.11-9.64c0-1.85-0.28-4.2-0.64-6.01c-0.06-0.31-0.35-1.62-0.63-3.12c-0.19-1.02-0.44-1.27-0.51-1.97
				c-0.09-0.85-0.75-1.92-1.12-3.41c-0.29-1.11-0.68-2.43-1.35-3.81c-0.96-2-1.97-3.1-2.49-4.2c-0.75-1.19-2.17-3.13-2.17-3.13
				c0,0-1.46-1.72-2.47-2.95C758.65,332.61,757.55,332.05,757.26,332.01z"/>
		</defs>
		<use xlink:href="#SVGID_3_"  style="overflow:visible;fill:#612E2D;"/>
		<clipPath id="SVGID_4_">
			<use xlink:href="#SVGID_3_"  style="overflow:visible;"/>
		</clipPath>
		<path class="st5" d="M752.14,329.6h-55.47v29.98c0,17.67,14.33,32,32,32h39.47c2.21,0,4-1.79,4-4V349.6
			C772.14,338.55,763.19,329.6,752.14,329.6z"/>
	</g>
	<rect x="320.11" y="419.56" class="st4" width="3.77" height="3.77"/>
	<rect x="350.38" y="419.56" class="st4" width="3.77" height="3.77"/>
	<rect x="342.83" y="419.56" class="st4" width="3.77" height="3.77"/>
	<path class="st6" d="M787.97,305.64c0,28.15-229.32,105.66-437.73,105.66S33.26,363.99,33.26,305.64s108.57-105.66,316.98-105.66
		S787.97,282.17,787.97,305.64z"/>
	<path class="st7" d="M787.97,305.64c0,28.15-229.32,105.66-437.73,105.66S33.26,363.99,33.26,305.64c0,0,104.94,0,313.35,0
		S787.97,305.64,787.97,305.64z"/>
	<path class="st8" d="M787.97,305.64c0,28.15-229.32,105.66-437.73,105.66S33.26,363.99,33.26,305.64
		c-2.45,16.16,20.47,72.69,231.92,82.04C477.25,397.05,788.4,330.4,787.97,305.64z"/>
	<path class="st9" d="M787.97,305.64c0-28.15-229.32-105.66-437.73-105.66S33.26,247.29,33.26,305.64c0,0,104.94,0,313.35,0
		S787.97,305.64,787.97,305.64z"/>
	<path class="st10" d="M787.97,305.64c0-28.15-229.32-105.66-437.73-105.66S33.26,247.29,33.26,305.64
		c-2.45-16.16,20.47-72.69,231.92-82.04C477.25,214.23,788.4,280.88,787.97,305.64z"/>
	<path class="st3" d="M34.67,294c-0.17,0.43,1.22-3.96,1.31-4.26c0.24-0.89,0.71-1.88,0.92-2.38c0.16-0.38,0.29-0.95,0.84-1.93
		c0,0,0,0,0,0c0-0.01,0.71-1.5,0.71-1.5c0-0.02,1.47-2.75,1.48-2.75c0.02-0.16,0.06-0.11,0.84-1.38c0.24-0.4,0.37-0.62,0.5-0.85
		c0.32-0.54,0.87-1.43,1.87-2.93c1.59-2.05,3.31-4.09,4.96-6.14l1.36,73.02c-1.43-0.93-3.79-3.34-6.42-7.5
		c-0.86-1.36-2.25-3.56-3.59-6.21c-2.37-4.68-4.41-8.73-5.29-14.17c-0.11-0.67-0.98-2.27-1.05-5.57c-0.03-1.29-0.03-2.38-0.06-3.81
		c-0.05-0.36,0.02-0.93-0.01-1.71c-0.02-0.56-0.01-1.19,0.08-2.16c0.08-0.9,0.31-2.25,0.74-3.87"/>
	<path class="st3" d="M34.67,296.22"/>
	<path class="st3" d="M12.91,304.89l20.69-2.16c0.58-0.06,1.08,0.39,1.08,0.97v5.38c0,0.58-0.5,1.03-1.08,0.97l-20.69-2.15
		c-0.5-0.05-0.88-0.47-0.88-0.97v-1.07C12.03,305.36,12.41,304.94,12.91,304.89z"/>
	<path class="st3" d="M757.77,305.64c0,4.17-24.44,7.55-45.28,7.55s-30.19-3.38-30.19-7.55s9.35-7.55,30.19-7.55
		S757.77,301.47,757.77,305.64z"/>
	<ellipse class="st3" cx="663.36" cy="305.64" rx="3.77" ry="1.89"/>
	
		<ellipse transform="matrix(0.2111 -0.9775 0.9775 0.2111 266.2931 856.1146)" class="st3" cx="663.51" cy="263.09" rx="1.89" ry="3.77"/>
	
		<ellipse transform="matrix(0.979 -0.204 0.204 0.979 -57.1166 142.6826)" class="st3" cx="663.36" cy="348.32" rx="3.77" ry="1.89"/>
	<ellipse class="st3" cx="504.79" cy="305.64" rx="3.77" ry="1.89"/>
	
		<ellipse transform="matrix(0.9912 -0.1327 0.1327 0.9912 -45.2665 70.3078)" class="st3" cx="504.79" cy="374.73" rx="3.77" ry="1.89"/>
	
		<ellipse transform="matrix(0.1364 -0.9907 0.9907 0.1364 201.9441 704.4771)" class="st3" cx="505.02" cy="236.41" rx="1.89" ry="3.77"/>
	<ellipse class="st3" cx="346.41" cy="305.64" rx="3.77" ry="1.89"/>
	<ellipse class="st3" cx="346.41" cy="223.53" rx="3.77" ry="1.89"/>
	<ellipse class="st3" cx="346.41" cy="387.9" rx="3.77" ry="1.89"/>
	<ellipse class="st3" cx="187.73" cy="305.64" rx="3.77" ry="1.89"/>
	
		<ellipse transform="matrix(0.9953 -0.0969 0.0969 0.9953 -21.4171 19.2826)" class="st3" cx="187.8" cy="230.12" rx="3.77" ry="1.89"/>
	
		<ellipse transform="matrix(0.1254 -0.9921 0.9921 0.1254 -214.3604 519.9723)" class="st3" cx="187.73" cy="381.56" rx="1.89" ry="3.77"/>
	<path class="st3" d="M433.17,383.63c0,4.17-8.84,7.55-15.09,7.55c-6.25,0-7.55-3.38-7.55-7.55s1.29-7.55,7.55-7.55
		C424.33,376.08,433.17,379.46,433.17,383.63z"/>
	<path class="st0" d="M757.77,279.2"/>
	<path class="st0" d="M757.59,279.21"/>
	<circle class="st2" cx="757.26" cy="366.02" r="7.55"/>
</g>
<g id="gradient">
</g>
<g id="texture">
</g>
</svg>
