<?xml version="1.0" encoding="UTF-8"?>
<svg enable-background="new 0 0 800 600" version="1.1" viewBox="0 0 800 600" xml:space="preserve" xmlns="http://www.w3.org/2000/svg" xmlns:xlink="http://www.w3.org/1999/xlink">
<style type="text/css">
	.st0{clip-path:url(#a);fill:#D6EDF7;}
	.st1{clip-path:url(#a);fill:#F0F9FE;}
	.st2{clip-path:url(#a);}
	.st3{fill:#D6EDF7;}
	.st4{fill:#F0F9FE;}
	.st5{fill:#D74738;}
	.st6{clip-path:url(#f);fill:#612E2D;}
	.st7{fill:#612E2D;}
	.st8{clip-path:url(#e);fill:#612E2D;}
	.st9{fill:#664341;}
	.st10{fill:#F7C263;}
	.st11{fill:#F29079;}
	.st12{fill:#C25241;}
	.st13{fill:#BB3A2E;}
	.st14{fill:#D86552;}
	.st15{fill:#EB7C65;}
	.st16{fill:#FFFFFF;}
</style>

	<defs>
		<path id="d" d="m193 121c106.07 5.43 113.54 109.77 222 126 55.15 8.25 133.92-6.69 177-22 2.16-0.77 7.69-3 15.87-5.66 20.96-6.8 38.94-9.66 45.13-10.34 21.83-2.41 70.67 3.76 91.93 38.62 27.92 45.77-13.39 105.41-16.93 110.38-24.9 34.9-61.31 44.92-93 58-40.01 16.52-120.16 15-261 15-187.1-11.95-222.58-36.07-238-48-14.61-11.31-66.11-51.16-74-118-1.69-14.29-6.74-76.08 36-115 34.51-31.42 81.12-29.71 95-29z"/>
	</defs>
	<linearGradient id="g" x1="60.901" x2="754.56" y1="275.88" y2="275.88" gradientUnits="userSpaceOnUse">
		<stop stop-color="#5D81C1" offset="0"/>
		<stop stop-color="#7DC4EE" offset="1"/>
	</linearGradient>
	<use fill="url(#g)" xlink:href="#d"/>
	<clipPath id="a">
		<use xlink:href="#d"/>
	</clipPath>
	<path class="st0" d="m198.24 357.92c9.03 1.7 18.38 11.03 17.31 22.4-1.06 11.23-11.67 17.85-20.5 18.09-10.55 0.29-21.53-8.45-22-19.19-0.55-12.36 12.99-23.6 25.19-21.3z"/>
	<path class="st1" d="m142.39 339.48c7.63 1.37 15.54 8.88 14.63 18.02-0.9 9.03-9.86 14.36-17.33 14.55-8.92 0.23-18.19-6.79-18.6-15.44-0.46-9.94 10.99-18.98 21.3-17.13z"/>
	<path class="st1" d="m678.97 348.8c7.63 1.37 15.54 8.88 14.63 18.02-0.9 9.03-9.86 14.36-17.33 14.55-8.92 0.23-18.19-6.79-18.59-15.44-0.46-9.94 10.98-18.98 21.29-17.13z"/>
	<path class="st0" d="m527.61 385.13c9.03 1.7 18.38 11.03 17.31 22.4-1.06 11.23-11.67 17.85-20.5 18.09-10.55 0.29-21.53-8.45-22-19.19-0.55-12.36 13-23.6 25.19-21.3z"/>
	<g class="st2">
		<path class="st3" d="m227.02 378.57c18.05 3.11 36.77 20.12 34.62 40.86-2.12 20.48-23.34 32.56-41 33-21.1 0.53-43.05-15.41-44-35-1.1-22.56 26-43.06 50.38-38.86z"/>
		<path class="st4" d="m70.51 232.79c22.18 4.66 45.18 30.19 42.54 61.3-2.61 30.71-28.68 48.83-50.38 49.5-25.93 0.8-52.9-23.11-54.07-52.5-1.35-33.84 31.94-64.6 61.91-58.3z"/>
		<path class="st4" d="m496.53 399.37c18.05 3.11 36.77 20.12 34.62 40.86-2.12 20.48-23.34 32.56-41 33-21.1 0.53-43.05-15.41-44-35-1.1-22.56 25.99-43.06 50.38-38.86z"/>
		<path class="st4" d="m655.49 362.16c18.05 3.11 36.77 20.12 34.62 40.86-2.12 20.48-23.34 32.56-41 33-21.1 0.53-43.05-15.41-44-35-1.09-22.56 26-43.06 50.38-38.86z"/>
		<path class="st4" d="m750.97 261.92c21.73 3.94 44.26 25.53 41.67 51.85-2.56 25.98-28.1 41.3-49.36 41.87-25.4 0.67-51.82-19.55-52.97-44.41-1.31-28.62 31.31-54.64 60.66-49.31z"/>
		<path class="st4" d="m291.49 394.37c18.05 3.11 36.77 20.12 34.62 40.86-2.12 20.48-23.34 32.56-41 33-21.1 0.53-43.05-15.41-44-35-1.09-22.55 26-43.06 50.38-38.86z"/>
		<path class="st3" d="m104.3 321.36c18.05 3.11 36.77 20.12 34.62 40.86-2.12 20.48-23.34 32.56-41 33-21.1 0.53-43.05-15.41-44-35-1.1-22.56 25.99-43.06 50.38-38.86z"/>
		<path class="st3" d="m726.1 341.35c18.05 3.11 36.77 20.12 34.62 40.86-2.12 20.48-23.34 32.49-41 33-21.07 0.61-42.83-14.89-44-35-1.32-22.54 25.99-43.06 50.38-38.86z"/>
		<path class="st3" d="m611.3 391.26c14.38 2.37 29.28 15.37 27.57 31.2-1.69 15.63-18.59 24.86-32.65 25.2-16.8 0.4-34.29-11.76-35.04-26.72-0.88-17.23 20.7-32.88 40.12-29.68z"/>
		<path class="st4" d="m165.84 358.72c21.73 3.94 44.26 25.53 41.67 51.85-2.56 25.98-28.1 41.3-49.36 41.87-25.4 0.67-51.82-19.55-52.97-44.41-1.31-28.63 31.3-54.64 60.66-49.31z"/>
	</g>
	<path class="st1" d="m566.65 394.37c18.05 3.11 36.77 20.12 34.62 40.86-2.12 20.48-23.34 32.56-41 33-21.1 0.53-43.05-15.41-44-35-1.1-22.55 26-43.06 50.38-38.86z"/>
	<path class="st0" d="m335.25 410.94c9.03 1.7 18.38 11.03 17.31 22.4-1.06 11.23-11.67 17.85-20.5 18.09-10.55 0.29-21.53-8.45-22-19.19-0.55-12.37 12.99-23.61 25.19-21.3z"/>


	<path class="st5" d="m598.71 249.94h-20c0 17.67 14.33 32 32 32h4c2.21 0 4-1.79 4-4v-8c0-11.05-8.96-20-20-20z"/>
	
		<defs>
			<path id="c" d="m610.82 254.02v27.91h4c2.21 0 4-1.79 4-4-0.01-0.08 0.01-4.2 0-4.28-0.02-0.16-0.06-4.54-0.06-4.56 0-0.87-0.15-1.99-0.34-2.84-0.03-0.15-0.18-0.76-0.33-1.48-0.1-0.48-0.23-0.6-0.27-0.93-0.05-0.4-0.4-0.91-0.59-1.62-0.15-0.52-0.36-1.15-0.71-1.8-0.51-0.94-1.04-1.46-1.32-1.99-0.4-0.56-1.15-1.48-1.15-1.48s-0.77-0.82-1.31-1.4c-1.18-1.24-1.77-1.51-1.92-1.53z"/>
		</defs>
		<use fill="#612E2D" xlink:href="#c"/>
		<clipPath id="f">
			<use xlink:href="#c"/>
		</clipPath>
		<path class="st6" d="m598.71 249.94h-20c0 17.67 14.33 32 32 32h4c2.21 0 4-1.79 4-4v-8c0-11.05-8.96-20-20-20z"/>
	
	<circle class="st7" cx="610.82" cy="268.43" r="4"/>
	<path class="st5" d="m598.76 225.94h-20c0-17.67 14.33-32 32-32h4c2.21 0 4 1.79 4 4v8c0 11.04-8.95 20-20 20z"/>
	
		<defs>
			<path id="b" d="m610.88 221.85v-27.91h4c2.21 0 4 1.79 4 4-0.01 0.08 0.01 4.2 0 4.28-0.02 0.16-0.06 4.54-0.06 4.56 0 0.87-0.15 1.99-0.34 2.84-0.03 0.15-0.18 0.76-0.33 1.48-0.1 0.48-0.23 0.6-0.27 0.93-0.05 0.4-0.4 0.91-0.59 1.62-0.15 0.52-0.36 1.15-0.71 1.8-0.51 0.94-1.04 1.46-1.32 1.99-0.4 0.56-1.15 1.48-1.15 1.48s-0.77 0.82-1.31 1.4c-1.18 1.25-1.77 1.51-1.92 1.53z"/>
		</defs>
		<use fill="#612E2D" xlink:href="#b"/>
		<clipPath id="e">
			<use xlink:href="#b"/>
		</clipPath>
		<path class="st8" d="m598.76 225.94h-20c0-17.67 14.33-32 32-32h4c2.21 0 4 1.79 4 4v8c0 11.04-8.95 20-20 20z"/>
	
	<circle class="st7" cx="610.88" cy="207.44" r="4"/>
	<path class="st9" d="m398 306h-32c-4.42 0-8-3.58-8-8v-4h48v4c0 4.42-3.58 8-8 8z"/>
	<rect class="st10" x="367.05" y="299.82" width="2" height="2"/>
	<rect class="st10" x="386.95" y="299.82" width="2" height="2"/>
	<rect class="st10" x="382.95" y="299.82" width="2" height="2"/>
	<rect class="st10" x="374.96" y="299.82" width="2" height="2"/>
	<rect class="st10" x="371.05" y="299.82" width="2" height="2"/>
	<rect class="st10" x="378.92" y="299.82" width="2" height="2"/>
	<rect class="st10" x="394.95" y="299.82" width="2" height="2"/>
	<rect class="st10" x="390.95" y="299.82" width="2" height="2"/>
	<path class="st11" d="m626.88 239.44c0 14.92-121.54 56-232 56s-168-25.07-168-56 57.54-56 168-56 232 43.56 232 56z"/>
	<path class="st12" d="m626.88 239.44c0 14.92-121.54 56-232 56s-168-25.07-168-56h166.07s233.93 0 233.93 0z"/>
	<path class="st13" d="m626.88 239.44c0 14.92-121.54 56-232 56s-168-25.07-168-56c-1.3 8.56 10.85 38.52 122.92 43.48 112.4 4.97 277.31-30.36 277.08-43.48z"/>
	<path class="st14" d="m626.88 239.44c0-14.92-121.54-56-232-56s-168 25.07-168 56h166.07s233.93 0 233.93 0z"/>
	<path class="st15" d="m626.88 239.44c0-14.92-121.54-56-232-56s-168 25.07-168 56c-1.3-8.56 10.85-38.52 122.92-43.48 112.4-4.97 277.31 30.36 277.08 43.48z"/>
	<path class="st9" d="m227.63 233.27c-0.09 0.23 0.65-2.1 0.69-2.26 0.13-0.47 0.38-0.99 0.49-1.26 0.08-0.2 0.15-0.5 0.44-1.02 0 0 0.38-0.79 0.38-0.8s0.78-1.46 0.78-1.46c0.01-0.08 0.03-0.06 0.44-0.73 0.13-0.21 0.2-0.33 0.27-0.45 0.17-0.29 0.46-0.76 0.99-1.55 0.85-1.09 1.75-2.17 2.63-3.25l0.72 38.7c-0.76-0.5-2.01-1.77-3.4-3.97-0.45-0.72-1.19-1.89-1.9-3.29-1.26-2.48-2.34-4.63-2.8-7.51-0.06-0.36-0.52-1.2-0.56-2.95-0.01-0.68-0.02-1.26-0.03-2.02-0.03-0.19 0.01-0.49 0-0.91-0.01-0.29 0-0.63 0.04-1.15 0.04-0.48 0.17-1.19 0.39-2.05"/>
	<path class="st9" d="m227.63 234.45"/>
	<path class="st9" d="m216.09 239.04 10.96-1.15c0.31-0.03 0.57 0.21 0.57 0.52v2.85c0 0.31-0.27 0.55-0.57 0.52l-10.96-1.14c-0.26-0.03-0.46-0.25-0.46-0.52v-0.57c0-0.26 0.2-0.48 0.46-0.51z"/>
	<path class="st9" d="m610.88 239.44c0 2.21-12.95 4-24 4s-16-1.79-16-4 4.95-4 16-4c11.04 0 24 1.79 24 4z"/>
	<ellipse class="st9" cx="560.84" cy="239.44" rx="2" ry="1"/>
	<ellipse class="st9" transform="matrix(.2111 -.9775 .9775 .2111 230.52 719.38)" cx="560.92" cy="216.89" rx="1" ry="2"/>
	<ellipse class="st9" transform="matrix(.979 -.204 .204 .979 -41.673 119.95)" cx="560.84" cy="262.06" rx="2" ry="1"/>
	<ellipse class="st9" cx="476.8" cy="239.44" rx="2" ry="1"/>
	<ellipse class="st9" transform="matrix(.9912 -.1327 .1327 .9912 -32.419 65.719)" cx="476.8" cy="276.06" rx="2" ry="1"/>
	<ellipse class="st9" transform="matrix(.1364 -.9907 .9907 .1364 211.02 647.56)" cx="476.92" cy="202.75" rx="1" ry="2"/>
	<ellipse class="st9" cx="392.85" cy="239.44" rx="2" ry="1"/>
	<ellipse class="st9" cx="392.85" cy="195.92" rx="2" ry="1"/>
	<ellipse class="st9" cx="392.85" cy="283.04" rx="2" ry="1"/>
	<ellipse class="st9" cx="308.75" cy="239.44" rx="2" ry="1"/>
	<ellipse class="st9" transform="matrix(.9953 -.0969 .0969 .9953 -17.872 30.863)" cx="308.79" cy="199.41" rx="2" ry="1"/>
	<ellipse class="st9" transform="matrix(.1254 -.9921 .9921 .1254 -7.434 550.93)" cx="308.75" cy="279.68" rx="1" ry="2"/>
	<path class="st9" d="m438.84 280.77c0 2.21-4.69 4-8 4s-4-1.79-4-4 0.69-4 4-4 8 1.79 8 4z"/>
	<rect class="st16" x="644.01" y="242.94" width="32.67" height="1"/>
	<rect class="st16" x="622.69" y="271.93" width="23.97" height="1"/>
	<rect class="st16" x="431.61" y="307.44" width="23.97" height="1"/>
	<path class="st16" d="m169.98 192.96c15.91 0.12 51.88-0.08 55.1-0.08 1.72 0-1.59-3.68-5.06-3.71-3.41-0.03-5.43 1.51-8.09 1.51-4.45 0-6.35-11.03-11.41-10.88-5.34 0.16-7.56 8.21-12.6 6.6-3.27-1.04-6.62-6.09-10.58-6.01-4.31 0.09-13.51 12.53-7.36 12.57z"/>
	<path class="st16" d="m364.28 377.98c15.91 0.12 51.88-0.08 55.1-0.08 1.72 0-1.84-2.17-4.96-2.29-3.4-0.13-6.69-4.68-9.36-4.68-4.45 0-7.57 2.42-12.63 2.58-5.34 0.16-7.41-8.55-11.4-8.55-3.75 0-6.39 9.25-10.35 9.33-4.31 0.09-12.55 3.65-6.4 3.69z"/>
	<path class="st16" d="m456.33 263.47c24.28 0.26 79.15-0.17 84.07-0.17 2.62 0-2.81-3.61-7.57-5.11-5.08-1.61-9.67-5.6-13.74-5.6-2.25 0-12.99 2.38-15.37-3.6-5.45-13.69-9.16-15.07-10.82-14.4-5.43 2.2-6.1 16.39-11.85 18.43-0.45 0.16-0.95 0.15-1.51-0.06-5.5-2.11-6.87-5.53-12.91-5.36-6.58 0.17-19.67 15.77-10.3 15.87z"/>



</svg>
