<?xml version="1.0" encoding="utf-8"?>
<!-- Generator: Adobe Illustrator 23.0.1, SVG Export Plug-In . SVG Version: 6.00 Build 0)  -->
<svg version="1.1" xmlns="http://www.w3.org/2000/svg" xmlns:xlink="http://www.w3.org/1999/xlink" x="0px" y="0px"
	 viewBox="0 0 800 600" style="enable-background:new 0 0 800 600;" xml:space="preserve">
<style type="text/css">
	.st0{clip-path:url(#SVGID_3_);fill:#D6EDF7;}
	.st1{clip-path:url(#SVGID_3_);fill:#F0F9FE;}
	.st2{clip-path:url(#SVGID_3_);}
	.st3{fill:#D6EDF7;}
	.st4{fill:#F0F9FE;}
	.st5{fill:#D74738;}
	.st6{clip-path:url(#SVGID_5_);fill:#612E2D;}
	.st7{fill:#612E2D;}
	.st8{clip-path:url(#SVGID_7_);fill:#612E2D;}
	.st9{fill:#664341;}
	.st10{fill:#F7C263;}
	.st11{fill:#F29079;}
	.st12{fill:#C25241;}
	.st13{fill:#BB3A2E;}
	.st14{fill:#D86552;}
	.st15{fill:#EB7C65;}
	.st16{fill:#FFFFFF;}
</style>
<g id="background">
	<defs>
		<path id="SVGID_1_" d="M193,121c106.07,5.43,113.54,109.77,222,126c55.15,8.25,133.92-6.69,177-22c2.16-0.77,7.69-3,15.87-5.66
			c20.96-6.8,38.94-9.66,45.13-10.34c21.83-2.41,70.67,3.76,91.93,38.62C772.85,293.39,731.54,353.03,728,358
			c-24.9,34.9-61.31,44.92-93,58c-40.01,16.52-120.16,15-261,15c0,0,0,0,0,0c-187.1-11.95-222.58-36.07-238-48
			c-14.61-11.31-66.11-51.16-74-118c-1.69-14.29-6.74-76.08,36-115C132.51,118.58,179.12,120.29,193,121z"/>
	</defs>
	<linearGradient id="SVGID_2_" gradientUnits="userSpaceOnUse" x1="60.9011" y1="275.8773" x2="754.5645" y2="275.8773">
		<stop  offset="0" style="stop-color:#5D81C1"/>
		<stop  offset="1" style="stop-color:#7DC4EE"/>
	</linearGradient>
	<use xlink:href="#SVGID_1_"  style="overflow:visible;fill:url(#SVGID_2_);"/>
	<clipPath id="SVGID_3_">
		<use xlink:href="#SVGID_1_"  style="overflow:visible;"/>
	</clipPath>
	<path class="st0" d="M198.24,357.92c9.03,1.7,18.38,11.03,17.31,22.4c-1.06,11.23-11.67,17.85-20.5,18.09
		c-10.55,0.29-21.53-8.45-22-19.19C172.5,366.86,186.04,355.62,198.24,357.92z"/>
	<path class="st1" d="M142.39,339.48c7.63,1.37,15.54,8.88,14.63,18.02c-0.9,9.03-9.86,14.36-17.33,14.55
		c-8.92,0.23-18.19-6.79-18.6-15.44C120.63,346.67,132.08,337.63,142.39,339.48z"/>
	<path class="st1" d="M678.97,348.8c7.63,1.37,15.54,8.88,14.63,18.02c-0.9,9.03-9.86,14.36-17.33,14.55
		c-8.92,0.23-18.19-6.79-18.59-15.44C657.22,355.99,668.66,346.95,678.97,348.8z"/>
	<path class="st0" d="M527.61,385.13c9.03,1.7,18.38,11.03,17.31,22.4c-1.06,11.23-11.67,17.85-20.5,18.09
		c-10.55,0.29-21.53-8.45-22-19.19C501.87,394.07,515.42,382.83,527.61,385.13z"/>
	<g class="st2">
		<path class="st3" d="M227.02,378.57c18.05,3.11,36.77,20.12,34.62,40.86c-2.12,20.48-23.34,32.56-41,33
			c-21.1,0.53-43.05-15.41-44-35C175.54,394.87,202.64,374.37,227.02,378.57z"/>
		<path class="st4" d="M70.51,232.79c22.18,4.66,45.18,30.19,42.54,61.3c-2.61,30.71-28.68,48.83-50.38,49.5
			c-25.93,0.8-52.9-23.11-54.07-52.5C7.25,257.25,40.54,226.49,70.51,232.79z"/>
		<path class="st4" d="M496.53,399.37c18.05,3.11,36.77,20.12,34.62,40.86c-2.12,20.48-23.34,32.56-41,33
			c-21.1,0.53-43.05-15.41-44-35C445.05,415.67,472.14,395.17,496.53,399.37z"/>
		<path class="st4" d="M655.49,362.16c18.05,3.11,36.77,20.12,34.62,40.86c-2.12,20.48-23.34,32.56-41,33
			c-21.1,0.53-43.05-15.41-44-35C604.02,378.46,631.11,357.96,655.49,362.16z"/>
		<path class="st4" d="M750.97,261.92c21.73,3.94,44.26,25.53,41.67,51.85c-2.56,25.98-28.1,41.3-49.36,41.87
			c-25.4,0.67-51.82-19.55-52.97-44.41C689,282.61,721.62,256.59,750.97,261.92z"/>
		<path class="st4" d="M291.49,394.37c18.05,3.11,36.77,20.12,34.62,40.86c-2.12,20.48-23.34,32.56-41,33
			c-21.1,0.53-43.05-15.41-44-35C240.02,410.68,267.11,390.17,291.49,394.37z"/>
		<path class="st3" d="M104.3,321.36c18.05,3.11,36.77,20.12,34.62,40.86c-2.12,20.48-23.34,32.56-41,33
			c-21.1,0.53-43.05-15.41-44-35C52.82,337.66,79.91,317.16,104.3,321.36z"/>
		<path class="st3" d="M726.1,341.35c18.05,3.11,36.77,20.12,34.62,40.86c-2.12,20.48-23.34,32.49-41,33
			c-21.07,0.61-42.83-14.89-44-35C674.4,357.67,701.71,337.15,726.1,341.35z"/>
		<path class="st3" d="M611.3,391.26c14.38,2.37,29.28,15.37,27.57,31.2c-1.69,15.63-18.59,24.86-32.65,25.2
			c-16.8,0.4-34.29-11.76-35.04-26.72C570.3,403.71,591.88,388.06,611.3,391.26z"/>
		<path class="st4" d="M165.84,358.72c21.73,3.94,44.26,25.53,41.67,51.85c-2.56,25.98-28.1,41.3-49.36,41.87
			c-25.4,0.67-51.82-19.55-52.97-44.41C103.87,379.4,136.48,353.39,165.84,358.72z"/>
	</g>
	<path class="st1" d="M566.65,394.37c18.05,3.11,36.77,20.12,34.62,40.86c-2.12,20.48-23.34,32.56-41,33
		c-21.1,0.53-43.05-15.41-44-35C515.17,410.68,542.27,390.17,566.65,394.37z"/>
	<path class="st0" d="M335.25,410.94c9.03,1.7,18.38,11.03,17.31,22.4c-1.06,11.23-11.67,17.85-20.5,18.09
		c-10.55,0.29-21.53-8.45-22-19.19C309.51,419.87,323.05,408.63,335.25,410.94z"/>
</g>
<g id="zeppelin">
	<path class="st5" d="M598.71,249.94h-20v0c0,17.67,14.33,32,32,32h4c2.21,0,4-1.79,4-4v-8
		C618.71,258.89,609.75,249.94,598.71,249.94z"/>
	<g>
		<defs>
			<path id="SVGID_4_" d="M610.82,254.02v27.91h4c2.21,0,4-1.79,4-4c-0.01-0.08,0.01-4.2,0-4.28c-0.02-0.16-0.06-4.54-0.06-4.56
				c0-0.87-0.15-1.99-0.34-2.84c-0.03-0.15-0.18-0.76-0.33-1.48c-0.1-0.48-0.23-0.6-0.27-0.93c-0.05-0.4-0.4-0.91-0.59-1.62
				c-0.15-0.52-0.36-1.15-0.71-1.8c-0.51-0.94-1.04-1.46-1.32-1.99c-0.4-0.56-1.15-1.48-1.15-1.48c0,0-0.77-0.82-1.31-1.4
				C611.56,254.31,610.97,254.04,610.82,254.02z"/>
		</defs>
		<use xlink:href="#SVGID_4_"  style="overflow:visible;fill:#612E2D;"/>
		<clipPath id="SVGID_5_">
			<use xlink:href="#SVGID_4_"  style="overflow:visible;"/>
		</clipPath>
		<path class="st6" d="M598.71,249.94h-20v0c0,17.67,14.33,32,32,32h4c2.21,0,4-1.79,4-4v-8
			C618.71,258.89,609.75,249.94,598.71,249.94z"/>
	</g>
	<circle class="st7" cx="610.82" cy="268.43" r="4"/>
	<path class="st5" d="M598.76,225.94h-20v0c0-17.67,14.33-32,32-32h4c2.21,0,4,1.79,4,4v8
		C618.76,216.98,609.81,225.94,598.76,225.94z"/>
	<g>
		<defs>
			<path id="SVGID_6_" d="M610.88,221.85v-27.91h4c2.21,0,4,1.79,4,4c-0.01,0.08,0.01,4.2,0,4.28c-0.02,0.16-0.06,4.54-0.06,4.56
				c0,0.87-0.15,1.99-0.34,2.84c-0.03,0.15-0.18,0.76-0.33,1.48c-0.1,0.48-0.23,0.6-0.27,0.93c-0.05,0.4-0.4,0.91-0.59,1.62
				c-0.15,0.52-0.36,1.15-0.71,1.8c-0.51,0.94-1.04,1.46-1.32,1.99c-0.4,0.56-1.15,1.48-1.15,1.48s-0.77,0.82-1.31,1.4
				C611.62,221.57,611.03,221.83,610.88,221.85z"/>
		</defs>
		<use xlink:href="#SVGID_6_"  style="overflow:visible;fill:#612E2D;"/>
		<clipPath id="SVGID_7_">
			<use xlink:href="#SVGID_6_"  style="overflow:visible;"/>
		</clipPath>
		<path class="st8" d="M598.76,225.94h-20v0c0-17.67,14.33-32,32-32h4c2.21,0,4,1.79,4,4v8
			C618.76,216.98,609.81,225.94,598.76,225.94z"/>
	</g>
	<circle class="st7" cx="610.88" cy="207.44" r="4"/>
	<path class="st9" d="M398,306h-32c-4.42,0-8-3.58-8-8v-4h48v4C406,302.42,402.42,306,398,306z"/>
	<rect x="367.05" y="299.82" class="st10" width="2" height="2"/>
	<rect x="386.95" y="299.82" class="st10" width="2" height="2"/>
	<rect x="382.95" y="299.82" class="st10" width="2" height="2"/>
	<rect x="374.96" y="299.82" class="st10" width="2" height="2"/>
	<rect x="371.05" y="299.82" class="st10" width="2" height="2"/>
	<rect x="378.92" y="299.82" class="st10" width="2" height="2"/>
	<rect x="394.95" y="299.82" class="st10" width="2" height="2"/>
	<rect x="390.95" y="299.82" class="st10" width="2" height="2"/>
	<path class="st11" d="M626.88,239.44c0,14.92-121.54,56-232,56s-168-25.07-168-56s57.54-56,168-56S626.88,227,626.88,239.44z"/>
	<path class="st12" d="M626.88,239.44c0,14.92-121.54,56-232,56s-168-25.07-168-56c0,0,55.62,0,166.07,0
		S626.88,239.44,626.88,239.44z"/>
	<path class="st13" d="M626.88,239.44c0,14.92-121.54,56-232,56s-168-25.07-168-56c-1.3,8.56,10.85,38.52,122.92,43.48
		C462.2,287.89,627.11,252.56,626.88,239.44z"/>
	<path class="st14" d="M626.88,239.44c0-14.92-121.54-56-232-56s-168,25.07-168,56c0,0,55.62,0,166.07,0
		S626.88,239.44,626.88,239.44z"/>
	<path class="st15" d="M626.88,239.44c0-14.92-121.54-56-232-56s-168,25.07-168,56c-1.3-8.56,10.85-38.52,122.92-43.48
		C462.2,190.99,627.11,226.32,626.88,239.44z"/>
	<path class="st9" d="M227.63,233.27c-0.09,0.23,0.65-2.1,0.69-2.26c0.13-0.47,0.38-0.99,0.49-1.26c0.08-0.2,0.15-0.5,0.44-1.02
		c0,0,0,0,0,0c0,0,0.38-0.79,0.38-0.8c0-0.01,0.78-1.46,0.78-1.46c0.01-0.08,0.03-0.06,0.44-0.73c0.13-0.21,0.2-0.33,0.27-0.45
		c0.17-0.29,0.46-0.76,0.99-1.55c0.85-1.09,1.75-2.17,2.63-3.25l0.72,38.7c-0.76-0.5-2.01-1.77-3.4-3.97
		c-0.45-0.72-1.19-1.89-1.9-3.29c-1.26-2.48-2.34-4.63-2.8-7.51c-0.06-0.36-0.52-1.2-0.56-2.95c-0.01-0.68-0.02-1.26-0.03-2.02
		c-0.03-0.19,0.01-0.49,0-0.91c-0.01-0.29,0-0.63,0.04-1.15c0.04-0.48,0.17-1.19,0.39-2.05"/>
	<path class="st9" d="M227.63,234.45"/>
	<path class="st9" d="M216.09,239.04l10.96-1.15c0.31-0.03,0.57,0.21,0.57,0.52v2.85c0,0.31-0.27,0.55-0.57,0.52l-10.96-1.14
		c-0.26-0.03-0.46-0.25-0.46-0.52v-0.57C215.63,239.29,215.83,239.07,216.09,239.04z"/>
	<path class="st9" d="M610.88,239.44c0,2.21-12.95,4-24,4c-11.05,0-16-1.79-16-4s4.95-4,16-4
		C597.92,235.44,610.88,237.23,610.88,239.44z"/>
	<ellipse class="st9" cx="560.84" cy="239.44" rx="2" ry="1"/>
	<ellipse transform="matrix(0.2111 -0.9775 0.9775 0.2111 230.516 719.3837)" class="st9" cx="560.92" cy="216.89" rx="1" ry="2"/>
	<ellipse transform="matrix(0.979 -0.204 0.204 0.979 -41.6728 119.9486)" class="st9" cx="560.84" cy="262.06" rx="2" ry="1"/>
	<ellipse class="st9" cx="476.8" cy="239.44" rx="2" ry="1"/>
	<ellipse transform="matrix(0.9912 -0.1327 0.1327 0.9912 -32.4191 65.7193)" class="st9" cx="476.8" cy="276.06" rx="2" ry="1"/>
	<ellipse transform="matrix(0.1364 -0.9907 0.9907 0.1364 211.0223 647.5612)" class="st9" cx="476.92" cy="202.75" rx="1" ry="2"/>
	<ellipse class="st9" cx="392.85" cy="239.44" rx="2" ry="1"/>
	<ellipse class="st9" cx="392.85" cy="195.92" rx="2" ry="1"/>
	<ellipse class="st9" cx="392.85" cy="283.04" rx="2" ry="1"/>
	<ellipse class="st9" cx="308.75" cy="239.44" rx="2" ry="1"/>
	<ellipse transform="matrix(0.9953 -0.0969 0.0969 0.9953 -17.8718 30.8632)" class="st9" cx="308.79" cy="199.41" rx="2" ry="1"/>
	<ellipse transform="matrix(0.1254 -0.9921 0.9921 0.1254 -7.434 550.9273)" class="st9" cx="308.75" cy="279.68" rx="1" ry="2"/>
	<path class="st9" d="M438.84,280.77c0,2.21-4.69,4-8,4c-3.31,0-4-1.79-4-4s0.69-4,4-4C434.15,276.77,438.84,278.56,438.84,280.77z"
		/>
	<rect x="644.01" y="242.94" class="st16" width="32.67" height="1"/>
	<rect x="622.69" y="271.93" class="st16" width="23.97" height="1"/>
	<rect x="431.61" y="307.44" class="st16" width="23.97" height="1"/>
	<path class="st16" d="M169.98,192.96c15.91,0.12,51.88-0.08,55.1-0.08c1.72,0-1.59-3.68-5.06-3.71c-3.41-0.03-5.43,1.51-8.09,1.51
		c-4.45,0-6.35-11.03-11.41-10.88c-5.34,0.16-7.56,8.21-12.6,6.6c-3.27-1.04-6.62-6.09-10.58-6.01
		C173.03,180.48,163.83,192.92,169.98,192.96z"/>
	<path class="st16" d="M364.28,377.98c15.91,0.12,51.88-0.08,55.1-0.08c1.72,0-1.84-2.17-4.96-2.29c-3.4-0.13-6.69-4.68-9.36-4.68
		c-4.45,0-7.57,2.42-12.63,2.58c-5.34,0.16-7.41-8.55-11.4-8.55c-3.75,0-6.39,9.25-10.35,9.33
		C366.37,374.38,358.13,377.94,364.28,377.98z"/>
	<path class="st16" d="M456.33,263.47c24.28,0.26,79.15-0.17,84.07-0.17c2.62,0-2.81-3.61-7.57-5.11c-5.08-1.61-9.67-5.6-13.74-5.6
		c-2.25,0-12.99,2.38-15.37-3.6c-5.45-13.69-9.16-15.07-10.82-14.4c-5.43,2.2-6.1,16.39-11.85,18.43c-0.45,0.16-0.95,0.15-1.51-0.06
		c-5.5-2.11-6.87-5.53-12.91-5.36C460.05,247.77,446.96,263.37,456.33,263.47z"/>
</g>
<g id="gradient">
</g>
<g id="texture">
</g>
</svg>
